<svg xmlns="http://www.w3.org/2000/svg" viewBox="0 0 512 512">
  <rect width="512" height="512" fill="#F0E6D3"/>
  <path fill="#C77B30" fill-rule="evenodd" d="
    M256 84
    L406 428
    Q414 448 392 448
    L348 448
    Q334 448 328 436
    L256 270
    L184 436
    Q178 448 164 448
    L120 448
    Q98 448 106 428
    Z

    M210 354
    L256 248
    L268 276
    L233 354
    Q228 366 216 366
    L206 366
    Q204 366 205 363
    Z

    M302 354
    L244 276
    L256 248
    L302 354
    Q303 356 301 362
    Q298 366 292 366
    L282 366
    Q270 366 275 354
    Z
  "/>
</svg>
